<svg width="817" height="175" xmlns="http://www.w3.org/2000/svg" xmlns:xlink="http://www.w3.org/1999/xlink" xml:space="preserve" overflow="hidden"><g transform="translate(-72 -277)"><g><g><g><path d="M-591.533 6551.88C-593.69 6549.74-596.201 6548.59-598.578 6548.5-600.959 6548.38-603.037 6549.16-604.679 6550.16-606.169 6551.04-607.391 6552.12-608.278 6553.03-608.447 6552.91-608.631 6552.75-608.812 6552.6-613.932 6548.83-621.019 6544.85-629.102 6546-636.283 6547.05-642.211 6550.92-647.965 6556.01-653.719 6561.11-659.518 6567.57-666.734 6574.78-678.417 6586.49-692.968 6594.48-692.968 6594.48-695.189 6595.66-696.04 6598.43-694.878 6600.64-693.704 6602.84-690.938 6603.65-688.717 6602.42-688.717 6602.42-673.297 6594.03-660.402 6581.12-652.992 6573.72-647.184 6567.33-642.055 6562.77-636.919 6558.22-632.683 6555.65-627.95 6554.96-623.849 6554.38-618.47 6556.83-614.234 6559.94-612.614 6561.14-611.838 6561.66-611.117 6562.38-609.874 6563.62-611.274 6565-611.274 6565L-650.819 6604.14C-652.611 6605.92-652.633 6608.78-650.867 6610.53-649.115 6612.31-646.233 6612.31-644.444 6610.5L-632.361 6598.31-632.352 6598.31C-632.276 6598.37-631.531 6598.8-631.531 6598.8L-611.458 6610.29C-612.565 6611.38-613.712 6612.49-614.904 6613.64L-626.169 6607.18C-626.167 6607.06-626.167 6606.94-626.167 6606.82-626.157 6604.32-628.194 6602.27-630.707 6602.27-633.214 6602.27-635.245 6604.32-635.242 6606.82-635.242 6611.53-638.087 6615.78-642.555 6617.59-647.024 6619.43-652.168 6618.44-655.568 6615.06-658.968 6611.71-659.94 6606.76-658.109 6602.39-656.28 6598.04-651.999 6595.15-647.15 6595.15-644.637 6595.15-642.598 6593.12-642.607 6590.59-642.604 6588.09-644.637 6586.06-647.141 6586.06-655.574 6586.06-663.223 6591.1-666.475 6598.86-669.727 6606.61-667.926 6615.57-661.937 6621.48-657.792 6625.59-652.195 6627.67-646.556 6627.52L-633.911 6634.76C-633.242 6633.85-632.536 6632.89-631.802 6631.95L-641.059 6626.64C-640.41 6626.46-639.771 6626.22-639.134 6625.98-638 6625.5-636.91 6624.92-635.897 6624.29L-628.909 6628.3C-628.173 6627.4-627.404 6626.49-626.616 6625.59L-632.886 6622C-631.724 6620.94-630.686 6619.73-629.799 6618.47L-623.448 6622.09C-622.799 6621.39-622.139 6620.73-621.466 6620.04-621.288 6619.86-621.113 6619.7-620.935 6619.52L-628.076 6615.42C-627.419 6614-626.915 6612.49-626.592 6610.96L-617.519 6616.14C-617.121 6615.78-616.726 6615.39-616.337 6615-617.981 6616.6-619.695 6618.29-621.466 6620.04-624.157 6622.75-626.649 6625.56-628.909 6628.3-637.481 6638.74-642.715 6648.43-642.715 6648.43-643.949 6650.63-643.147 6653.41-640.932 6654.58-638.73 6655.73-635.984 6654.88-634.798 6652.65-634.798 6652.65-626.782 6638.11-615.097 6626.4-607.883 6619.19-601.441 6613.4-596.339 6607.67-591.238 6601.9-587.367 6595.96-586.332 6588.78-585.161 6580.69-589.165 6573.63-592.939 6568.5-593.066 6568.32-593.208 6568.14-593.34 6567.96-592.462 6567.09-591.34 6565.82-590.432 6564.25-589.5 6562.68-588.676 6560.75-588.661 6558.52-588.646 6556.29-589.602 6553.84-591.551 6551.88ZM-597.248 6557.31C-596.717 6557.82-596.626 6558.19-596.638 6558.61-596.641 6559.03-596.819 6559.51-597.118 6560.03-597.676 6560.99-598.617 6561.78-598.693 6561.87-599.525 6561.02-600.165 6560.42-600.503 6560.15-600.796 6559.82-601.339 6559.21-602.105 6558.43-601.954 6558.25-601.251 6557.37-600.376 6556.83-599.875 6556.53-599.384 6556.38-598.922 6556.41-598.46 6556.44-597.945 6556.59-597.248 6557.31ZM-602.706 6570.77C-602.69 6570.77-602.678 6570.8-602.669 6570.8-601.969 6571.55-601.459 6572.31-600.262 6573.9-600.011 6574.27-599.761 6574.6-599.519 6574.96L-605.75 6571.37-605.312 6570.95C-603.976 6569.62-603.484 6569.98-602.706 6570.77ZM-596.412 6580.75-596.403 6580.78C-595.471 6583.14-594.994 6585.49-595.268 6587.54L-612.164 6577.89-608.293 6573.97ZM-596.137 6591.07C-596.623 6592.46-597.344 6593.82-598.18 6595.21L-618.05 6583.83-614.698 6580.45ZM-600.105 6598.13C-600.98 6599.31-601.972 6600.49-603.08 6601.75L-623.955 6589.8-620.603 6586.4ZM-605.502 6604.38C-606.522 6605.43-607.732 6606.61-608.882 6607.73L-629.847 6595.75-626.495 6592.34ZM-636.573 6638.53-651.371 6630.08C-651.83 6629.81-653.121 6629.06-654.081 6630.11-655.279 6631.41-654.226 6632.47-653.921 6632.62L-638.503 6641.46C-637.915 6640.55-637.269 6639.56-636.569 6638.53ZM-680.655 6605.31C-681.612 6604.38-683.012 6604.02-684.324 6604.38-686.355 6604.92-687.583 6607-687.067 6609.02-685.021 6616.87-677.883 6623.33-670.765 6630.45L-670.702 6630.51C-663.609 6637.63-657.197 6644.66-649.389 6646.71-647.365 6647.25-645.259 6646.04-644.692 6644.02-644.121 6641.97-645.304 6639.89-647.328 6639.38-651.45 6638.29-658.223 6632.17-665.347 6625.04-665.383 6625.01-665.419 6624.98-665.455 6624.92-672.53 6617.83-678.607 6611.11-679.678 6607-679.847 6606.37-680.182 6605.77-680.652 6605.31Z" fill="#3377DD" fill-rule="nonzero" fill-opacity="1" transform="matrix(0.712798 -0.70155 0.712798 0.70155 -4041.25 -4706.48)"/><path d="M4104.91 1718.69C4101.35 1718.69 4098.07 1719.86 4095.3 1722.02 4094.59 1722.57 4094.08 1723.29 4093.46 1723.93L4093.46 1722.06C4093.46 1720.89 4092.52 1719.93 4091.35 1719.93L4080.35 1719.93C4079.18 1719.93 4078.22 1720.89 4078.22 1722.06L4078.22 1768.66C4078.22 1769.83 4079.18 1770.78 4080.35 1770.78L4091.35 1770.78C4092.52 1770.78 4093.46 1769.83 4093.46 1768.66L4093.46 1744.67C4093.46 1740.6 4094.53 1738.15 4096.51 1736.59 4098.81 1734.83 4101.2 1734.01 4103.93 1734.01 4105.81 1734.01 4106.98 1734.44 4106.7 1734.26 4108 1735.13 4109.77 1734.34 4110.01 1732.8L4111.54 1721.72C4111.67 1720.81 4111.2 1719.92 4110.37 1719.52 4108.88 1718.77 4107.24 1718.68 4104.91 1718.68Z" fill="#3377DD" fill-rule="nonzero" fill-opacity="1" transform="matrix(1.0013 0 0 1 -3321.21 -1363.9)"/><path d="M4046.36 1718.69C4041.46 1718.69 4036.91 1719.76 4032.93 1721.98 4028.92 1724.12 4025.78 1727.32 4023.5 1731.35 4023.48 1731.36 4023.48 1731.37 4023.46 1731.39 4021.24 1735.46 4020.18 1740.15 4020.18 1745.38 4020.18 1750.06 4021.09 1754.48 4023.01 1758.5 4024.95 1762.54 4028.04 1765.83 4032.07 1768.25 4036.21 1770.64 4041.24 1771.79 4047.09 1771.79 4051.35 1771.79 4055.04 1771.38 4058.19 1770.49 4061.22 1769.65 4063.72 1768.67 4065.7 1767.41 4066.55 1766.85 4066.89 1765.74 4066.49 1764.79L4063.14 1756.96C4062.67 1755.81 4061.29 1755.33 4060.2 1755.92 4058.58 1756.78 4056.81 1757.5 4054.87 1758 4053.03 1758.47 4050.5 1758.71 4047.36 1758.71 4043.78 1758.71 4041.26 1757.89 4039.49 1756.46 4038.28 1755.43 4037.32 1753.6 4036.57 1751.3L4067.28 1751.3C4068.37 1751.3 4069.28 1750.47 4069.39 1749.38 4069.6 1747.34 4069.69 1745.36 4069.69 1743.47 4069.69 1735.97 4067.87 1729.84 4063.95 1725.43L4063.91 1725.39C4059.96 1720.88 4053.91 1718.69 4046.36 1718.69ZM4046.04 1732.18C4049.2 1732.18 4051.29 1732.94 4052.69 1734.26 4052.71 1734.28 4052.71 1734.29 4052.74 1734.31 4053.7 1735.16 4054.27 1736.98 4054.53 1739.43L4036.51 1739.43C4037.11 1737.32 4037.92 1735.56 4039.09 1734.47 4040.69 1732.97 4042.86 1732.18 4046.04 1732.18Z" fill="#3377DD" fill-rule="nonzero" fill-opacity="1" transform="matrix(1.0013 0 0 1 -3321.21 -1363.9)"/><path d="M3924.84 1718.69C3919.66 1718.69 3914.93 1719.86 3910.86 1722.23 3906.83 1724.57 3903.65 1727.84 3901.45 1731.89 3899.32 1735.92 3898.23 1740.43 3898.23 1745.21 3898.23 1750.07 3899.32 1754.54 3901.52 1758.58 3903.73 1762.63 3906.91 1765.9 3910.94 1768.24 3915.01 1770.61 3919.73 1771.79 3924.84 1771.79 3929.98 1771.79 3934.59 1770.62 3938.6 1768.24 3942.63 1765.9 3945.82 1762.64 3948.04 1758.58 3950.24 1754.54 3951.33 1750.07 3951.33 1745.21 3951.33 1740.43 3950.26 1735.93 3948.04 1731.89 3945.89 1727.82 3942.75 1724.57 3938.72 1722.23 3934.69 1719.85 3930.05 1718.69 3924.84 1718.69ZM3924.52 1731.89C3927.96 1731.89 3930.43 1733.07 3932.52 1735.68 3932.52 1735.68 3932.54 1735.68 3932.56 1735.68 3934.67 1738.27 3935.72 1741.37 3935.72 1745.38 3935.72 1749.41 3934.69 1752.54 3932.71 1755.04 3932.71 1755.06 3932.71 1755.06 3932.71 1755.09 3930.86 1757.52 3928.53 1758.62 3925.14 1758.62 3921.73 1758.62 3919.26 1757.49 3917.1 1755 3914.93 1752.42 3913.86 1749.31 3913.86 1745.38 3913.86 1741.3 3914.89 1738.12 3916.85 1735.55 3918.87 1733.01 3921.2 1731.89 3924.52 1731.89Z" fill="#3377DD" fill-rule="nonzero" fill-opacity="1" transform="matrix(1.0013 0 0 1 -3321.21 -1363.9)"/><path d="M3781.51 1718.69C3776.54 1718.69 3772.09 1719.78 3768.27 1722.02 3764.48 1724.24 3761.51 1727.44 3759.44 1731.43 3759.42 1731.43 3759.42 1731.43 3759.4 1731.43 3757.4 1735.43 3756.44 1740.07 3756.44 1745.21 3756.44 1750.46 3757.61 1755.18 3759.89 1759.25 3759.89 1759.26 3759.89 1759.27 3759.89 1759.29 3762.24 1763.24 3765.35 1766.33 3769.19 1768.54 3769.21 1768.55 3769.25 1768.56 3769.27 1768.58 3773.15 1770.71 3777.4 1771.79 3781.94 1771.79 3786.05 1771.79 3789.87 1770.77 3793.26 1768.75 3793.26 1768.73 3793.28 1768.73 3793.3 1768.7 3794.52 1767.94 3795.52 1767.05 3796.5 1766.16L3796.59 1768.7C3796.61 1769.86 3797.55 1770.79 3798.72 1770.79L3809.79 1770.79C3813.24 1770.79 3812.15 1769.63 3811.9 1768.66 3808.06 1753.34 3808.06 1736.39 3811.9 1722.06 3812.17 1721.1 3810.96 1719.94 3809.79 1719.94L3798.59 1719.94C3797.44 1719.94 3796.48 1720.86 3796.46 1722.02L3796.42 1724.14C3794.63 1722.59 3792.45 1721.28 3789.94 1720.27 3787.29 1719.22 3784.48 1718.69 3781.51 1718.69ZM3783.75 1732.31C3785.91 1732.31 3787.78 1732.85 3789.55 1733.93 3791.32 1735.02 3792.69 1736.46 3793.75 1738.47 3794.8 1740.45 3795.16 1742.69 3795.16 1745.3L3795.16 1746.01C3795.16 1749.91 3794.2 1752.79 3791.96 1755.09 3789.7 1757.35 3787.12 1758.42 3783.75 1758.42 3779.81 1758.42 3777.16 1757.29 3775.22 1755 3773.28 1752.6 3772.26 1749.45 3772.26 1745.3 3772.26 1741.22 3773.35 1738.16 3775.35 1735.81 3777.31 1733.45 3779.89 1732.31 3783.75 1732.31Z" fill="#3377DD" fill-rule="nonzero" fill-opacity="1" transform="matrix(1.0013 0 0 1 -3321.21 -1363.9)"/><path d="M3746.82 1718.69C3743.26 1718.69 3739.98 1719.86 3737.2 1722.02 3736.48 1722.58 3735.95 1723.32 3735.33 1723.98L3735.33 1722.06C3735.33 1720.89 3734.39 1719.93 3733.22 1719.93L3722.26 1719.93C3721.08 1719.93 3720.13 1720.89 3720.13 1722.06 3720.13 1722.06 3720.13 1736.31 3720.13 1743.44 3720.13 1751.84 3720.13 1768.66 3720.13 1768.66 3720.13 1769.83 3721.08 1770.78 3722.26 1770.78L3733.22 1770.78C3734.39 1770.78 3735.33 1769.83 3735.33 1768.66L3735.33 1744.67C3735.33 1740.62 3736.44 1738.16 3738.42 1736.59 3740.72 1734.83 3743.11 1734.01 3745.82 1734.01 3747.7 1734.01 3748.89 1734.44 3748.61 1734.26 3749.91 1735.13 3751.68 1734.34 3751.92 1732.8L3753.41 1721.72C3753.54 1720.81 3753.07 1719.92 3752.24 1719.52 3750.79 1718.79 3749.15 1718.68 3746.82 1718.68Z" fill="#3377DD" fill-rule="nonzero" fill-opacity="1" transform="matrix(1.0013 0 0 1 -3321.21 -1363.9)"/><path d="M3688.93 1718.69C3684.03 1718.69 3679.51 1719.76 3675.54 1721.98 3671.53 1724.12 3668.4 1727.32 3666.12 1731.35 3666.09 1731.36 3666.09 1731.37 3666.07 1731.39 3663.85 1735.45 3662.75 1740.14 3662.75 1745.38 3662.75 1750.07 3663.73 1754.49 3665.62 1758.5 3667.57 1762.53 3670.61 1765.82 3674.64 1768.25 3678.78 1770.64 3683.81 1771.79 3689.66 1771.79 3693.92 1771.79 3697.63 1771.38 3700.81 1770.49 3703.83 1769.65 3706.33 1768.67 3708.31 1767.41 3709.17 1766.85 3709.51 1765.74 3709.1 1764.79L3705.71 1756.96C3705.22 1755.81 3703.86 1755.33 3702.77 1755.92 3701.15 1756.78 3699.38 1757.5 3697.44 1758 3695.6 1758.48 3693.11 1758.71 3689.98 1758.71 3686.39 1758.71 3683.88 1757.89 3682.11 1756.46 3680.89 1755.43 3679.93 1753.6 3679.19 1751.3L3709.89 1751.3C3710.98 1751.3 3711.89 1750.47 3712 1749.38 3712.21 1747.34 3712.3 1745.36 3712.3 1743.47 3712.3 1735.97 3710.44 1729.84 3706.52 1725.43L3706.48 1725.39C3702.53 1720.88 3696.48 1718.69 3688.93 1718.69ZM3688.65 1732.18C3691.81 1732.18 3693.88 1732.94 3695.31 1734.26 3695.33 1734.28 3695.33 1734.29 3695.35 1734.31 3696.31 1735.16 3696.88 1736.98 3697.14 1739.43L3679.12 1739.43C3679.72 1737.32 3680.53 1735.56 3681.7 1734.47 3683.3 1732.97 3685.48 1732.18 3688.65 1732.18Z" fill="#3377DD" fill-rule="nonzero" fill-opacity="1" transform="matrix(1.0013 0 0 1 -3321.21 -1363.9)"/><path d="M3999.86 1691.91C3998.68 1691.91 3997.72 1692.86 3997.72 1694.03L3997.72 1722.77C3997.72 1722.81 3997.72 1722.85 3997.72 1722.89L3997.81 1724.23C3996.87 1723.43 3996 1722.61 3994.84 1721.94 3991.28 1719.78 3987.28 1718.69 3982.99 1718.69 3975.48 1718.69 3969.24 1721.15 3964.69 1726.06 3960.17 1730.89 3957.91 1737.44 3957.91 1745.22 3957.91 1750.46 3959.09 1755.18 3961.37 1759.25 3961.37 1759.27 3961.37 1759.27 3961.37 1759.29 3963.71 1763.23 3966.83 1766.33 3970.67 1768.54 3970.67 1768.55 3970.69 1768.56 3970.71 1768.58 3974.59 1770.71 3978.87 1771.79 3983.39 1771.79 3987.53 1771.79 3991.35 1770.77 3994.74 1768.75 3994.74 1768.73 3994.76 1768.73 3994.78 1768.71 3996 1767.94 3996.96 1767.05 3997.94 1766.17L3998.02 1768.71C3998.04 1769.86 3998.98 1770.79 4000.15 1770.79L4010.96 1770.79C4012.14 1770.79 4013.25 1769.65 4013.1 1768.67 4009.79 1748.04 4010.47 1714.2 4013.1 1694.04 4013.23 1693.04 4012.14 1691.91 4010.96 1691.91ZM3985.23 1732.18C3987.36 1732.18 3989.24 1732.75 3991.03 1733.85 3992.8 1734.93 3994.16 1736.38 3995.23 1738.38 3996.27 1740.36 3996.81 1742.6 3996.81 1745.21L3996.81 1745.92C3996.81 1749.82 3995.68 1752.65 3993.44 1754.96 3991.16 1757.22 3988.6 1758.29 3985.23 1758.29 3981.28 1758.29 3978.64 1757.16 3976.7 1754.88 3974.76 1752.46 3973.48 1749.36 3973.48 1745.21 3973.48 1741.12 3974.78 1738.06 3976.78 1735.72 3978.73 1733.37 3981.37 1732.18 3985.23 1732.18Z" fill="#3377DD" fill-rule="nonzero" fill-opacity="1" transform="matrix(1.0013 0 0 1 -3321.21 -1363.9)"/><path d="M3602.51 1691.85C3601.34 1691.85 3600.38 1692.85 3600.38 1694.09L3602.7 1703.99C3602.7 1705.16 3603.6 1706.11 3604.68 1706.11L3628.89 1706.11 3628.89 1768.66C3628.89 1769.83 3629.85 1770.78 3631.02 1770.78L3642.3 1770.78C3643.47 1770.78 3644.43 1769.83 3644.43 1768.66L3644.43 1706.11 3668.84 1706.11C3669.93 1706.11 3670.83 1705.16 3670.83 1703.99L3673.15 1694.09C3673.15 1692.85 3672.19 1691.85 3671.02 1691.85Z" fill="#3377DD" fill-rule="nonzero" fill-opacity="1" transform="matrix(1.0013 0 0 1 -3321.21 -1363.9)"/><path d="M3870.62 1690.66C3862.92 1690.66 3855.95 1692.44 3849.81 1695.95L3849.81 1695.9C3843.65 1699.34 3838.79 1704.21 3835.35 1710.35 3835.35 1710.37 3835.35 1710.38 3835.35 1710.4 3831.98 1716.55 3830.32 1723.49 3830.32 1731.18 3830.32 1738.46 3831.92 1745.21 3835.05 1751.34 3838.21 1757.41 3842.75 1762.35 3848.68 1766 3848.7 1766.01 3848.7 1766.02 3848.72 1766.04 3854.78 1769.71 3861.88 1771.49 3869.92 1771.49 3874.2 1771.49 3878.42 1770.86 3882.54 1769.58 3882.56 1769.58 3882.56 1769.58 3882.58 1769.58 3886.72 1768.25 3889.6 1766.92 3891.54 1765.16 3892.18 1764.59 3892.41 1763.68 3892.11 1762.87L3888.79 1753.21C3888.34 1751.92 3886.83 1751.38 3885.65 1752.09 3880.41 1755.3 3875.05 1756.88 3869.51 1756.88 3864.69 1756.88 3860.73 1755.74 3857.38 1753.55 3854.01 1751.33 3851.45 1748.35 3849.64 1744.51 3847.87 1740.61 3846.97 1736.28 3846.97 1731.39 3846.97 1726.04 3847.98 1721.45 3849.98 1717.52 3851.98 1713.56 3854.65 1710.61 3858.08 1708.53 3861.56 1706.43 3865.4 1705.36 3869.7 1705.36 3875.95 1705.36 3880.75 1707.03 3884.46 1710.32 3885.5 1711.26 3887.17 1710.93 3887.78 1709.65L3892.73 1699.49C3893.14 1698.68 3892.97 1697.71 3892.33 1697.08 3891.28 1696.03 3889.92 1695.37 3887.96 1694.45L3888.04 1694.45C3885.95 1693.41 3883.43 1692.57 3880.41 1691.87 3877.38 1691.07 3874.12 1690.66 3870.62 1690.66Z" fill="#3377DD" fill-rule="nonzero" fill-opacity="1" transform="matrix(1.0013 0 0 1 -3321.21 -1363.9)"/></g></g></g></g></svg>