<?xml version="1.0" encoding="UTF-8" standalone="no"?>
<!-- Created with Inkscape (http://www.inkscape.org/) -->

<svg
   width="234.22589mm"
   height="53.849396mm"
   viewBox="0 0 234.22589 53.849399"
   version="1.1"
   id="svg1"
   inkscape:version="1.4 (e7c3feb1, 2024-10-09)"
   sodipodi:docname="teracoder_logo_dark.svg"
   xmlns:inkscape="http://www.inkscape.org/namespaces/inkscape"
   xmlns:sodipodi="http://sodipodi.sourceforge.net/DTD/sodipodi-0.dtd"
   xmlns="http://www.w3.org/2000/svg"
   xmlns:svg="http://www.w3.org/2000/svg">
  <sodipodi:namedview
     id="namedview1"
     pagecolor="#ffffff"
     bordercolor="#cccccc"
     borderopacity="1"
     inkscape:showpageshadow="0"
     inkscape:pageopacity="1"
     inkscape:pagecheckerboard="0"
     inkscape:deskcolor="#d1d1d1"
     inkscape:document-units="mm"
     inkscape:zoom="0.6743757"
     inkscape:cx="442.63161"
     inkscape:cy="97.126869"
     inkscape:window-width="1472"
     inkscape:window-height="920"
     inkscape:window-x="1920"
     inkscape:window-y="36"
     inkscape:window-maximized="0"
     inkscape:current-layer="layer1">
    <inkscape:page
       x="0"
       y="0"
       width="234.22589"
       height="53.8494"
       id="page1"
       margin="0"
       bleed="0" />
  </sodipodi:namedview>
  <defs
     id="defs1" />
  <g
     inkscape:label="Layer 1"
     inkscape:groupmode="layer"
     id="layer1"
     transform="translate(-31.779392,-82.391017)">
    <g
       id="g1"
       transform="matrix(9.2127545,0,0,9.2127545,-1650.6025,-1014.5081)"
       style="stroke-width:0.108545;fill:#ffffff;fill-opacity:1">
      <g
         id="g88"
         transform="matrix(1.1929567,0,0,1.1929567,16.634738,-78.930698)"
         style="stroke-width:0.0909883;fill:#ffffff;fill-opacity:1">
        <path
           id="path76"
           style="baseline-shift:baseline;display:inline;overflow:visible;opacity:1;vector-effect:none;fill:#ffffff;fill-opacity:1;stroke-width:0.0909883;stroke-linecap:round;stroke-linejoin:round;paint-order:markers stroke fill;enable-background:accumulate;stop-color:#000000;stop-opacity:1"
           d="m -19.605976,217.1582 c -0.07155,-0.0716 -0.154675,-0.1088 -0.233506,-0.11255 -0.07889,-0.004 -0.147811,0.0227 -0.202263,0.0551 -0.04936,0.0293 -0.08984,0.0648 -0.119236,0.0949 -0.0056,-0.004 -0.01169,-0.009 -0.01767,-0.0133 -0.169766,-0.12504 -0.404664,-0.25775 -0.672594,-0.21901 -0.237937,0.0344 -0.434413,0.16292 -0.625158,0.33202 -0.190731,0.16911 -0.382884,0.38288 -0.622069,0.62207 -0.387265,0.38726 -0.869485,0.65236 -0.869485,0.65236 -0.07369,0.0394 -0.101872,0.13094 -0.06336,0.20385 0.03892,0.0734 0.130663,0.10003 0.204184,0.0592 0,0 0.511133,-0.2782 0.938488,-0.70555 0.245667,-0.24567 0.438121,-0.45736 0.608183,-0.60818 0.170133,-0.15076 0.3106,-0.23619 0.467486,-0.25888 0.13589,-0.0196 0.314164,0.0617 0.454586,0.16515 0.05367,0.0394 0.07941,0.0566 0.103253,0.0804 0.04123,0.0412 -0.0052,0.0873 -0.0052,0.0873 l -1.310686,1.2967 c -0.05934,0.0591 -0.06012,0.15433 -0.0016,0.21259 0.05812,0.0588 0.153629,0.0583 0.212896,-0.001 l 0.400551,-0.40481 3.04e-4,3e-4 c 0.0025,0.002 0.02714,0.0166 0.02714,0.0166 l 0.665286,0.38079 c -0.03666,0.0355 -0.07469,0.0724 -0.114143,0.11049 l -0.373367,-0.21353 c 7.5e-5,-0.004 9e-5,-0.008 9e-5,-0.0122 2.9e-4,-0.0833 -0.06727,-0.15082 -0.150525,-0.15053 -0.08306,-1.5e-4 -0.150422,0.0672 -0.150272,0.15028 0,0.1561 -0.09436,0.29687 -0.242453,0.3574 -0.148092,0.0605 -0.318545,0.0274 -0.431288,-0.0839 -0.112742,-0.11124 -0.144917,-0.2754 -0.08423,-0.41995 0.06068,-0.14455 0.202564,-0.24035 0.363204,-0.24035 0.08329,3.2e-4 0.150898,-0.0673 0.15058,-0.15058 1.17e-4,-0.083 -0.06721,-0.15034 -0.150221,-0.15022 -0.279521,0 -0.533077,0.16703 -0.640837,0.42372 -0.10776,0.2567 -0.04807,0.55443 0.150432,0.75028 0.137391,0.13556 0.322883,0.20498 0.509775,0.19997 l 0.419119,0.24016 c 0.02217,-0.0305 0.04557,-0.0618 0.06991,-0.0936 l -0.306868,-0.17542 c 0.02155,-0.006 0.04279,-0.0139 0.06388,-0.0225 0.03756,-0.0154 0.07369,-0.0345 0.107309,-0.0556 l 0.231521,0.13278 c 0.02448,-0.0298 0.04993,-0.06 0.07601,-0.09 l -0.207731,-0.11886 c 0.03843,-0.0353 0.07287,-0.0748 0.102247,-0.11745 l 0.210477,0.12037 c 0.02152,-0.0227 0.04338,-0.0452 0.06574,-0.0676 0.0059,-0.006 0.01172,-0.0117 0.01759,-0.0176 l -0.236709,-0.1355 c 0.02184,-0.047 0.0385,-0.0969 0.04918,-0.14831 l 0.300764,0.17241 c 0.01315,-0.0128 0.02625,-0.0255 0.03918,-0.038 -0.05447,0.0528 -0.111354,0.10832 -0.169997,0.16696 -0.08922,0.0892 -0.171784,0.18227 -0.246742,0.2735 -0.284098,0.34578 -0.4576,0.66682 -0.4576,0.66682 -0.04084,0.0735 -0.01425,0.16531 0.05916,0.20418 0.07298,0.0382 0.164,0.01 0.203246,-0.064 0,0 0.265711,-0.48223 0.652976,-0.86949 0.239186,-0.23919 0.452652,-0.43103 0.621761,-0.62176 0.169109,-0.19073 0.297345,-0.38748 0.33171,-0.62546 0.03874,-0.26793 -0.09396,-0.50225 -0.219006,-0.67198 -0.0042,-0.006 -0.0089,-0.0118 -0.01335,-0.0177 0.02913,-0.0297 0.06632,-0.0719 0.09647,-0.12323 0.03086,-0.0521 0.05816,-0.11596 0.05867,-0.19004 4.7e-4,-0.074 -0.03122,-0.15527 -0.0958,-0.21984 z m -0.189388,0.17966 c 0.01755,0.0175 0.02052,0.0291 0.02021,0.043 -1.03e-4,0.0141 -0.006,0.0301 -0.01596,0.047 -0.01848,0.0325 -0.04972,0.0582 -0.05221,0.0607 -0.02762,-0.0274 -0.04876,-0.0471 -0.05993,-0.0568 -0.0097,-0.0108 -0.02771,-0.0308 -0.05319,-0.0563 0.005,-0.006 0.02838,-0.0354 0.05736,-0.0531 0.01662,-0.01 0.03286,-0.0149 0.04819,-0.0141 0.01534,8e-4 0.03237,0.006 0.05553,0.0296 z m -0.180919,0.44609 c 4.83e-4,3.3e-4 8.55e-4,8.2e-4 0.0012,0.001 0.02316,0.0246 0.04004,0.05 0.07981,0.10326 0.0083,0.0113 0.01659,0.0227 0.02456,0.0344 l -0.20651,-0.11826 0.0145,-0.0145 c 0.04433,-0.0443 0.06061,-0.0317 0.08644,-0.006 z m 0.208628,0.33143 3.04e-4,3.1e-4 c 0.03081,0.0786 0.04666,0.1568 0.03757,0.22456 l -0.560048,-0.3206 0.128373,-0.12959 z m 0.0091,0.34178 c -0.01618,0.0456 -0.04009,0.0911 -0.06778,0.13711 l -0.658573,-0.37716 0.111092,-0.11231 z m -0.131584,0.23376 c -0.02901,0.0387 -0.06185,0.0784 -0.09859,0.11988 l -0.691822,-0.39622 0.111093,-0.11231 z m -0.178866,0.20684 c -0.03382,0.0353 -0.07392,0.0738 -0.112005,0.1114 l -0.694877,-0.39742 0.111093,-0.11231 z m -1.029824,1.13261 -0.4905,-0.28068 c -0.01513,-0.009 -0.05796,-0.0341 -0.08975,0.001 -0.03969,0.0438 -0.0048,0.0779 0.0053,0.0836 l 0.510937,0.29247 c 0.0195,-0.0301 0.04093,-0.0623 0.06411,-0.0963 z m -1.46103,-1.10124 c -0.03177,-0.0314 -0.07819,-0.0433 -0.121686,-0.031 -0.06728,0.0181 -0.107964,0.0871 -0.09088,0.15413 0.06782,0.25966 0.304393,0.4741 0.540356,0.71006 l 0.0021,0.002 c 0.23507,0.23521 0.447587,0.46909 0.706418,0.53671 0.06706,0.0182 0.136889,-0.0219 0.155646,-0.0894 0.01893,-0.0673 -0.02026,-0.1364 -0.0874,-0.15405 -0.136547,-0.0357 -0.361106,-0.23891 -0.597209,-0.47501 -0.0012,-0.001 -0.0024,-0.002 -0.0036,-0.004 -0.234536,-0.23477 -0.435921,-0.45768 -0.471367,-0.59356 -0.0056,-0.0214 -0.01674,-0.0409 -0.03236,-0.0564 z"
           transform="matrix(0.7122527,-0.70192314,0.7122527,0.70192314,0,0)"
           sodipodi:nodetypes="cccccssscccscscscccccscccccccscscccssccccsccccccscccccsscccssccccsccsccccccssccccccccccccccccccccccccccccccscccccsscccscscscc"
           inkscape:export-filename="teracoderlogo"
           inkscape:export-xdpi="245.76"
           inkscape:export-ydpi="245.76" />
      </g>
      <g
         id="g97"
         transform="matrix(0.84354098,0,0,0.84354098,45.083258,53.304964)"
         style="stroke-width:0.128678;fill:#ffffff;fill-opacity:1">
        <path
           style="font-size:4.7625px;line-height:1.66;font-family:Alata;-inkscape-font-specification:'Alata, Normal';text-align:center;letter-spacing:0.0423333px;word-spacing:0px;text-anchor:middle;fill:#ffffff;fill-opacity:1;stroke:none;stroke-width:0.0340461"
           d="m 192.51535,80.604119 c -0.16693,0 -0.32102,0.055 -0.45118,0.15625 -0.0331,0.0258 -0.0576,0.0597 -0.0859,0.0898 v -0.0879 c -4e-5,-0.055 -0.0446,-0.0996 -0.0996,-0.0996 h -0.51563 c -0.055,4e-5 -0.0996,0.0446 -0.0996,0.0996 v 2.18555 c 4e-5,0.055 0.0446,0.0996 0.0996,0.0996 h 0.51563 c 0.055,-4e-5 0.0996,-0.0446 0.0996,-0.0996 v -1.125 c 0,-0.19083 0.05,-0.30586 0.14258,-0.37891 0.10782,-0.0825 0.22007,-0.12109 0.34765,-0.12109 0.0881,0 0.14364,0.0202 0.13086,0.0117 0.0609,0.041 0.14377,0.004 0.1543,-0.0684 l 0.0723,-0.51953 c 0.006,-0.0427 -0.016,-0.0845 -0.0547,-0.10352 -0.0698,-0.0349 -0.14757,-0.0391 -0.25586,-0.0391 z"
           id="path89" />
        <path
           style="font-size:4.7625px;line-height:1.66;font-family:Alata;-inkscape-font-specification:'Alata, Normal';text-align:center;letter-spacing:0.0423333px;word-spacing:0px;text-anchor:middle;fill:#ffffff;fill-opacity:1;stroke:none;stroke-width:0.0340461"
           d="m 189.76938,80.604119 c -0.23047,0 -0.44367,0.0503 -0.63086,0.1543 -0.18709,0.10081 -0.33488,0.25044 -0.44141,0.43945 -6.8e-4,6.6e-4 -0.001,0.001 -0.002,0.002 -0.10417,0.19095 -0.1543,0.41092 -0.1543,0.65625 0,0.21942 0.0436,0.42657 0.13281,0.61524 0.0912,0.18936 0.23673,0.34361 0.42578,0.45703 0.19323,0.11242 0.42982,0.16602 0.70313,0.16601 0.20004,0 0.37315,-0.0192 0.52148,-0.0605 0.14248,-0.0398 0.25948,-0.0856 0.35157,-0.14453 0.0407,-0.0265 0.0564,-0.0785 0.0371,-0.12305 l -0.15625,-0.36719 c -0.0229,-0.0538 -0.0871,-0.0764 -0.13868,-0.0488 -0.0754,0.0406 -0.15909,0.0742 -0.25,0.0977 -0.0856,0.0221 -0.20426,0.0332 -0.35156,0.0332 -0.16772,0 -0.28653,-0.0385 -0.36914,-0.10547 -0.0575,-0.0485 -0.10239,-0.13428 -0.13672,-0.24218 h 1.43945 c 0.0514,2.1e-4 0.0946,-0.0387 0.0996,-0.0899 0.01,-0.0957 0.0137,-0.1884 0.0137,-0.27734 0,-0.35143 -0.0853,-0.63897 -0.26954,-0.8457 l -0.002,-0.002 c -0.18432,-0.21177 -0.46833,-0.31445 -0.82226,-0.31445 z m -0.0156,0.63284 c 0.14802,0 0.24576,0.0357 0.3125,0.0977 6.6e-4,6.8e-4 0.001,0.001 0.002,0.002 0.0451,0.0402 0.0722,0.12552 0.084,0.24024 h -0.8457 c 0.0284,-0.0989 0.0665,-0.18134 0.12109,-0.23243 0.0751,-0.0703 0.17745,-0.10742 0.32617,-0.10742 z"
           id="path90" />
        <path
           style="font-size:4.7625px;line-height:1.66;font-family:Alata;-inkscape-font-specification:'Alata, Normal';text-align:center;letter-spacing:0.0423333px;word-spacing:0px;text-anchor:middle;fill:#ffffff;fill-opacity:1;stroke:none;stroke-width:0.0340461"
           d="m 184.07015,80.604119 c -0.24334,0 -0.46518,0.0549 -0.65625,0.16602 -0.18928,0.11012 -0.33784,0.26325 -0.4414,0.45312 -0.0998,0.18928 -0.15039,0.40068 -0.15039,0.625 0,0.2275 0.0509,0.43745 0.15429,0.62695 0.10357,0.18989 0.25214,0.34301 0.44141,0.45313 0.19096,0.1111 0.41196,0.16603 0.65234,0.16601 0.24039,2e-5 0.45682,-0.0548 0.64453,-0.16601 0.189,-0.10996 0.33953,-0.26274 0.44337,-0.45313 0.10336,-0.1895 0.15429,-0.39945 0.15429,-0.62695 -1e-5,-0.22455 -0.0508,-0.43533 -0.15429,-0.625 -0.10055,-0.19069 -0.24812,-0.34294 -0.43751,-0.45312 -0.18811,-0.11148 -0.40704,-0.16602 -0.65039,-0.16602 z m -0.0156,0.61914 c 0.1618,0 0.27734,0.0556 0.375,0.17774 6.7e-4,1e-5 0.001,1e-5 0.002,0 0.0994,0.12145 0.14844,0.26724 0.14844,0.45507 0,0.18895 -0.048,0.33596 -0.14063,0.45313 -1e-5,6.7e-4 -1e-5,10e-4 0,0.002 -0.0876,0.11415 -0.19606,0.16602 -0.35547,0.16602 -0.15941,0 -0.27635,-0.053 -0.37695,-0.16992 -0.10189,-0.12117 -0.15234,-0.26704 -0.15234,-0.45118 0,-0.19164 0.048,-0.34043 0.14062,-0.46093 0.0948,-0.11912 0.20384,-0.17188 0.35938,-0.17188 z"
           id="path91" />
        <path
           style="font-size:4.7625px;line-height:1.66;font-family:Alata;-inkscape-font-specification:'Alata, Normal';text-align:center;letter-spacing:0.0423333px;word-spacing:0px;text-anchor:middle;fill:#ffffff;fill-opacity:1;stroke:none;stroke-width:0.0340461"
           d="m 177.34795,80.604119 c -0.23343,0 -0.44234,0.0511 -0.62109,0.15625 -0.17756,0.10445 -0.31718,0.25455 -0.41406,0.44141 -6.7e-4,-1e-5 -0.001,-1e-5 -0.002,0 -0.0937,0.18741 -0.13868,0.40533 -0.13868,0.64648 0,0.24611 0.0546,0.46738 0.16212,0.6582 -1e-5,6.7e-4 -1e-5,10e-4 0,0.002 0.10973,0.18516 0.25616,0.3301 0.43554,0.43359 0.001,7e-4 0.003,0.001 0.004,0.002 0.18237,0.0998 0.38117,0.15039 0.59375,0.15039 0.19394,2e-5 0.37292,-0.0476 0.53125,-0.14257 6.8e-4,-6.6e-4 0.001,-0.001 0.002,-0.002 0.0577,-0.0359 0.10409,-0.0778 0.15039,-0.11914 l 0.004,0.11914 c 0.001,0.0542 0.0453,0.0977 0.0996,0.0977 h 0.51905 c 0.16227,0 0.11106,-0.0541 0.0996,-0.0996 -0.18067,-0.71857 -0.18008,-1.51349 0,-2.18555 0.0121,-0.0453 -0.0446,-0.0996 -0.0996,-0.0996 h -0.52491 c -0.0543,3e-5 -0.0985,0.0434 -0.0996,0.0977 l -0.002,0.0996 c -0.0847,-0.073 -0.18668,-0.13443 -0.30469,-0.18164 -0.12347,-0.0494 -0.25605,-0.0742 -0.39453,-0.0742 z m 0.10547,0.63884 c 0.10079,0 0.18849,0.0253 0.27149,0.0762 0.0831,0.0509 0.14744,0.11877 0.19726,0.21289 0.049,0.0926 0.0656,0.1978 0.0656,0.32032 v 0.0332 c 0,0.18302 -0.0444,0.31799 -0.14953,0.42578 -0.10636,0.1058 -0.22707,0.15625 -0.38477,0.15625 -0.1854,0 -0.3091,-0.0532 -0.40039,-0.16015 -0.0906,-0.11291 -0.13867,-0.26044 -0.13867,-0.45508 0,-0.19154 0.0503,-0.33498 0.14453,-0.44532 0.092,-0.11042 0.21287,-0.16406 0.39453,-0.16406 z"
           id="path92" />
        <path
           style="font-size:4.7625px;line-height:1.66;font-family:Alata;-inkscape-font-specification:'Alata, Normal';text-align:center;letter-spacing:0.0423333px;word-spacing:0px;text-anchor:middle;fill:#ffffff;fill-opacity:1;stroke:none;stroke-width:0.0340461"
           d="m 175.72126,80.604119 c -0.16692,0 -0.32102,0.055 -0.45117,0.15625 -0.0338,0.0263 -0.0588,0.061 -0.0879,0.0918 v -0.0899 c -4e-5,-0.055 -0.0446,-0.0996 -0.0996,-0.0996 h -0.51367 c -0.055,4e-5 -0.0996,0.0446 -0.0996,0.0996 0,0 0,0.668449 0,1.002673 0,0.394292 0,1.182877 0,1.182877 4e-5,0.055 0.0446,0.0996 0.0996,0.0996 h 0.51367 c 0.055,-4e-5 0.0996,-0.0446 0.0996,-0.0996 v -1.125 c 0,-0.19021 0.0516,-0.30554 0.14453,-0.37891 0.10785,-0.0825 0.22008,-0.12109 0.34766,-0.12109 0.0881,0 0.14371,0.0203 0.13086,0.0117 0.0609,0.041 0.14376,0.004 0.15429,-0.0684 l 0.0703,-0.51953 c 0.006,-0.0427 -0.016,-0.0845 -0.0547,-0.10352 -0.0686,-0.0343 -0.14561,-0.0391 -0.2539,-0.0391 z"
           id="path93"
           sodipodi:nodetypes="csccscsscscsscscccccc" />
        <path
           style="font-size:4.7625px;line-height:1.66;font-family:Alata;-inkscape-font-specification:'Alata, Normal';text-align:center;letter-spacing:0.0423333px;word-spacing:0px;text-anchor:middle;fill:#ffffff;fill-opacity:1;stroke:none;stroke-width:0.0340461"
           d="m 173.00642,80.604119 c -0.23047,0 -0.44199,0.0505 -0.62891,0.1543 -0.18708,0.10081 -0.33487,0.25044 -0.44141,0.43945 -6.7e-4,6.6e-4 -0.001,0.001 -0.002,0.002 -0.10387,0.19044 -0.15625,0.41036 -0.15625,0.65625 0,0.22005 0.0458,0.42712 0.13477,0.61524 0.0909,0.1888 0.2345,0.34344 0.42383,0.45703 0.19323,0.11242 0.42982,0.16601 0.70312,0.16601 0.20005,1e-5 0.37488,-0.0191 0.52344,-0.0605 0.14248,-0.0398 0.25948,-0.0856 0.35156,-0.14453 0.0407,-0.0265 0.0564,-0.0785 0.0371,-0.12305 l -0.1582,-0.36719 c -0.023,-0.0538 -0.0871,-0.0764 -0.13867,-0.0488 -0.0753,0.0406 -0.15909,0.0742 -0.25,0.0977 -0.086,0.0222 -0.20232,0.0332 -0.34961,0.0332 -0.16772,0 -0.28652,-0.0385 -0.36914,-0.10547 -0.0575,-0.0485 -0.10239,-0.13428 -0.13672,-0.24218 h 1.43945 c 0.0514,2.1e-4 0.0946,-0.0387 0.0996,-0.0899 0.01,-0.0957 0.0137,-0.1884 0.0137,-0.27734 0,-0.35182 -0.0875,-0.63925 -0.27148,-0.8457 l -0.002,-0.002 c -0.18433,-0.21176 -0.46833,-0.31445 -0.82227,-0.31445 z m -0.0137,0.63284 c 0.14801,0 0.24576,0.0357 0.3125,0.0977 6.5e-4,6.8e-4 0.001,0.001 0.002,0.002 0.045,0.0402 0.0721,0.12548 0.084,0.24024 h -0.84571 c 0.0284,-0.0989 0.0666,-0.18134 0.1211,-0.23243 0.0751,-0.0703 0.17745,-0.10742 0.32617,-0.10742 z"
           id="path94" />
        <path
           style="font-size:4.7625px;line-height:1.66;font-family:Alata;-inkscape-font-specification:'Alata, Normal';text-align:center;letter-spacing:0.0423333px;word-spacing:0px;text-anchor:middle;fill:#ffffff;fill-opacity:1;stroke:none;stroke-width:0.0340461"
           d="m 187.58764,79.348259 c -0.055,4e-5 -0.0996,0.0446 -0.0996,0.0996 v 1.34766 c -6e-5,0.002 -6e-5,0.004 0,0.006 l 0.004,0.0625 c -0.0439,-0.0372 -0.0847,-0.076 -0.13867,-0.10743 -0.16763,-0.10126 -0.35568,-0.15234 -0.55665,-0.15234 -0.35131,0 -0.64467,0.11553 -0.85742,0.3457 -0.21279,0.22675 -0.31836,0.53367 -0.31836,0.89844 0,0.24611 0.0546,0.46737 0.16211,0.6582 -1e-5,6.7e-4 -1e-5,10e-4 0,0.002 0.10945,0.18468 0.25587,0.32993 0.43555,0.43359 6.6e-4,6.8e-4 0.001,0.001 0.002,0.002 0.18265,0.1 0.38312,0.15039 0.59571,0.15039 0.19393,0 0.37292,-0.0476 0.53125,-0.14257 6.8e-4,-6.6e-4 0.001,-0.001 0.002,-0.002 0.0577,-0.0359 0.10251,-0.0778 0.14844,-0.11914 l 0.004,0.11914 c 10e-4,0.0542 0.0453,0.0977 0.0996,0.0977 h 0.50758 c 0.055,-4e-5 0.10699,-0.0533 0.0996,-0.0996 -0.15431,-0.96751 -0.12264,-2.55432 0,-3.5 0.006,-0.0466 -0.0446,-0.0996 -0.0996,-0.0996 z m -0.68555,1.8887 c 0.0997,0 0.18768,0.0268 0.27149,0.0781 0.0831,0.051 0.14746,0.11879 0.19726,0.21289 0.049,0.0926 0.0742,0.1978 0.0742,0.32031 v 0.0332 c 0,0.18302 -0.0527,0.31568 -0.1582,0.42383 -0.10635,0.10581 -0.22706,0.15625 -0.38477,0.15625 -0.18539,0 -0.30909,-0.0532 -0.40039,-0.16015 -0.0909,-0.11325 -0.15093,-0.25848 -0.15093,-0.45313 0,-0.19214 0.0611,-0.33541 0.15484,-0.44531 0.0919,-0.11036 0.21546,-0.16602 0.39648,-0.16602 z"
           id="path95" />
        <path
           style="font-size:4.7625px;line-height:1.66;font-family:Alata;-inkscape-font-specification:'Alata, Normal';text-align:center;letter-spacing:0.0423333px;word-spacing:0px;text-anchor:middle;fill:#ffffff;fill-opacity:1;stroke:none;stroke-width:0.0340461"
           d="m 168.95293,79.345684 c -0.055,4.2e-5 -0.0996,0.04691 -0.0996,0.10475 l 0.1086,0.464225 c 4e-5,0.055 0.0417,0.0996 0.0933,0.0996 h 1.13513 v 2.93359 c 3e-5,0.055 0.0446,0.0996 0.0996,0.0996 h 0.52929 c 0.055,-4e-5 0.0996,-0.0446 0.0996,-0.0996 v -2.93359 h 1.14489 c 0.0515,-4e-5 0.0933,-0.0446 0.0933,-0.0996 l 0.1086,-0.464225 c -4e-5,-0.05784 -0.0446,-0.10475 -0.0996,-0.10475 z"
           id="path96"
           sodipodi:nodetypes="cccsccscsccccsc" />
        <path
           style="font-size:4.7625px;line-height:1.66;font-family:Alata;-inkscape-font-specification:'Alata, Normal';text-align:center;letter-spacing:0.0423333px;word-spacing:0px;text-anchor:middle;fill:#ffffff;fill-opacity:1;stroke:none;stroke-width:0.0340461"
           d="m 181.52729,79.289659 c -0.3612,0 -0.68802,0.0836 -0.97656,0.24804 v -0.002 c -0.28831,0.16092 -0.51682,0.38943 -0.67773,0.67774 -1e-5,6.7e-4 -1e-5,0.001 0,0.002 -0.15761,0.28839 -0.23633,0.61405 -0.23633,0.97461 0,0.34149 0.0757,0.65811 0.22265,0.94531 0.14757,0.28508 0.36056,0.51661 0.63868,0.6875 6.5e-4,6.8e-4 0.001,0.001 0.002,0.002 0.28394,0.17239 0.61745,0.25586 0.99414,0.25586 0.20054,0 0.39838,-0.0298 0.59179,-0.0898 6.7e-4,10e-6 0.001,10e-6 0.002,0 0.19363,-0.0624 0.32917,-0.12457 0.41992,-0.20703 0.03,-0.027 0.0408,-0.0694 0.0273,-0.10742 l -0.15625,-0.45313 c -0.0207,-0.0605 -0.0921,-0.0861 -0.14648,-0.0527 -0.24675,0.15046 -0.49732,0.22461 -0.75781,0.22461 -0.22545,0 -0.41112,-0.0533 -0.56836,-0.15625 -0.15869,-0.10387 -0.27842,-0.24349 -0.36328,-0.42383 -0.0826,-0.18289 -0.125,-0.38603 -0.125,-0.61524 0,-0.25072 0.047,-0.46612 0.14062,-0.65039 0.0944,-0.18593 0.21958,-0.32395 0.38086,-0.42187 0.16227,-0.0985 0.34228,-0.14844 0.54492,-0.14844 0.29271,0 0.51755,0.0785 0.69141,0.23242 0.0495,0.0442 0.12753,0.0286 0.15625,-0.0312 l 0.23242,-0.47656 c 0.0181,-0.0381 0.0103,-0.0834 -0.0195,-0.11328 -0.0489,-0.0489 -0.1125,-0.0801 -0.20508,-0.12305 h 0.004 c -0.0975,-0.0487 -0.21632,-0.0881 -0.35742,-0.12109 -0.14241,-0.0373 -0.29581,-0.0566 -0.45898,-0.0566 z"
           id="path97" />
      </g>
    </g>
  </g>
</svg>
